<svg width="314" height="54" viewBox="0 0 314 54" xmlns="http://www.w3.org/2000/svg" xmlns:xlink="http://www.w3.org/1999/xlink"><title>Logo</title><defs><path id="a" d="M30.484 39.998H0V.015h30.484v39.983z"/><path id="c" d="M107.237 13.018V.505H.207v12.513h107.03z"/><path id="e" d="M10.557.353H.547v9.796h10.01V.352z"/></defs><g fill="none" fill-rule="evenodd"><g transform="translate(0 13.378)"><mask id="b" fill="#fff"><use xlink:href="#a"/></mask><path d="M30.484 14.974c0 8.535-6.042 14.958-14.1 14.958-3.938 0-6.643-1.466-8.568-3.695v13.76H0V.778h7.666v3.14C9.59 1.57 12.356.014 16.354.014c8.028 0 14.13 6.424 14.13 14.96m-23.058 0c0 4.486 3.036 7.83 7.485 7.83 4.63 0 7.517-3.49 7.517-7.83 0-4.342-2.886-7.832-7.516-7.832-4.448 0-7.484 3.343-7.484 7.83" fill="#BBBDBF" mask="url(#b)"/></g><path d="M49.487 13.393c6.614 0 11.333 4.487 11.333 11.087v18.097h-7.846V26.944c0-4.136-2.074-6.365-5.682-6.365-3.367 0-6.163 2.11-6.163 6.422v15.575H33.28V1.645h7.847v15.56c2.073-2.815 5.14-3.812 8.357-3.812M94.914 28.352c0 8.564-6.704 14.958-15.783 14.958-9.05 0-15.723-6.394-15.723-14.958 0-8.565 6.674-14.96 15.724-14.96 9.08 0 15.784 6.395 15.784 14.96m-23.51 0c0 4.605 3.308 7.83 7.727 7.83 4.45 0 7.757-3.225 7.757-7.83 0-4.606-3.307-7.832-7.756-7.832-4.418 0-7.725 3.226-7.725 7.832M126.002 28.322c0 .91-.06 1.907-.15 2.58h-20.654c.78 4.108 3.788 5.897 7.485 5.897 2.526 0 5.232-.97 7.366-2.73l4.6 4.93c-3.338 2.96-7.487 4.31-12.418 4.31-8.898 0-15.122-5.953-15.122-14.87 0-8.917 6.013-15.047 14.732-15.047 8.388 0 14.16 6.07 14.16 14.93m-20.774-2.64h12.897c-.72-3.667-2.946-5.69-6.343-5.69-3.728 0-5.863 2.14-6.554 5.69M156.338 24.48v18.097h-7.847V26.944c0-4.136-2.073-6.365-5.68-6.365-3.368 0-6.164 2.11-6.164 6.422v15.575H128.8v-28.42h7.636v3.342c2.074-3.022 5.23-4.107 8.568-4.107 6.614 0 11.334 4.487 11.334 11.087M160.143 42.577h7.846v-28.42h-7.847M202.225 42.577l-10.9-14.212-4.66 6.076 6.24 8.137M202.223 14.156h-9.32l-6.237 8.132 4.66 6.077" fill="#BBBDBF"/><path fill="#3278C3" d="M186.666 22.288l-6.237-8.133h-9.32l10.896 14.21-10.9 14.212h9.32l6.24-8.136 4.66-6.075"/><g><g transform="translate(206.212 30.093)"><mask id="d" fill="#fff"><use xlink:href="#c"/></mask><path d="M5.436.73H.206v12.064H2.67v-4.8h.725L7 12.793h2.985L6.178 7.96c2.376-.234 3.79-1.578 3.79-3.56 0-2.31-1.582-3.67-4.532-3.67zM2.67 2.942h2.722c1.316 0 2.04.45 2.04 1.456 0 1.025-.69 1.5-2.04 1.5h-2.72V2.942zm18.612 9.85v-2.206h-6.775V7.812h6.395V5.606h-6.395V2.934h6.704V.73h-9.167v12.064h9.24zM31.82 3.772l1.166-1.964C31.422.9 30 .522 28.26.522c-2.632 0-4.928 1.31-4.928 3.826 0 2.19 1.59 3.11 3.77 3.456l.787.12c1.722.276 2.623.578 2.623 1.414 0 .93-1.05 1.456-2.43 1.456-1.598 0-3.038-.612-3.94-1.3l-1.28 1.938c1.325 1.042 3.33 1.577 5.21 1.577 2.66 0 5.063-1.277 5.063-3.93 0-2.095-1.722-3.034-3.94-3.38l-.697-.11c-1.485-.234-2.554-.518-2.554-1.397 0-.913.99-1.448 2.367-1.448 1.352 0 2.527.44 3.507 1.026zM41.042.506c-3.816 0-6.492 2.645-6.492 6.256 0 3.612 2.676 6.258 6.492 6.258 3.807 0 6.5-2.646 6.5-6.257 0-3.61-2.693-6.255-6.5-6.255zm0 2.31c2.288 0 3.922 1.602 3.922 3.946 0 2.345-1.634 3.948-3.922 3.948-2.27 0-3.922-1.603-3.922-3.947 0-2.343 1.652-3.946 3.922-3.946zm18.876 5.16V.73h-2.473v7.125c0 1.974-1.157 2.853-2.853 2.853-1.696 0-2.853-.88-2.853-2.853V.73h-2.475v7.246c0 3.335 2.182 5.033 5.327 5.033s5.326-1.7 5.326-5.034zM67.285.73h-5.23v12.064h2.465v-4.8h.724l3.604 4.8h2.986L68.027 7.96c2.376-.234 3.79-1.578 3.79-3.56 0-2.31-1.582-3.67-4.532-3.67zM64.52 2.942h2.72c1.317 0 2.04.45 2.04 1.456 0 1.025-.688 1.5-2.04 1.5h-2.72V2.942zM79.59.505c-3.817 0-6.493 2.628-6.493 6.256 0 3.63 2.676 6.258 6.492 6.258 2.27 0 4.107-.983 5.22-2.55l-2.014-1.414c-.742 1.06-1.846 1.654-3.224 1.654-2.182 0-3.905-1.525-3.905-3.947 0-2.343 1.67-3.946 3.905-3.946 1.386 0 2.49.62 3.197 1.663l2.12-1.267C83.873 1.53 81.876.505 79.59.505zm16.146 12.29v-2.208H88.96V7.812h6.396V5.606H88.96V2.934h6.706V.73h-9.17v12.064h9.24zM105.92 3.77l1.166-1.964C105.523.9 104.1.522 102.36.522c-2.63 0-4.928 1.31-4.928 3.826 0 2.19 1.59 3.11 3.77 3.456l.788.12c1.722.276 2.623.578 2.623 1.414 0 .93-1.05 1.456-2.43 1.456-1.598 0-3.037-.612-3.94-1.3l-1.28 1.938c1.326 1.042 3.33 1.577 5.212 1.577 2.66 0 5.062-1.277 5.062-3.93 0-2.095-1.723-3.034-3.94-3.38l-.698-.11c-1.485-.234-2.554-.518-2.554-1.397 0-.913.99-1.448 2.368-1.448 1.35 0 2.526.44 3.507 1.026z" fill="#BBBDBF" mask="url(#d)"/></g><path d="M212.355 14.016c-3.798 0-6.528 2.612-6.528 6.257 0 3.895 3.04 6.248 6.466 6.248 3.507 0 6.042-2.576 6.042-6.23 0-.233-.01-.448-.035-.68h-5.69v2.007h3.146c-.327 1.724-1.493 2.663-3.516 2.663-2.146 0-3.86-1.55-3.86-4.007 0-2.353 1.643-3.973 3.904-3.973 1.272 0 2.28.474 2.986 1.267l1.775-1.697c-1.104-1.173-2.71-1.854-4.69-1.854zm16.844 12.29v-2.25h-6.537V14.24h-2.465v12.065h9zm6.74-12.29c-3.817 0-6.493 2.646-6.493 6.257 0 3.61 2.676 6.256 6.492 6.256 3.806 0 6.5-2.646 6.5-6.257 0-3.61-2.694-6.257-6.5-6.257zm0 2.31c2.287 0 3.92 1.603 3.92 3.947 0 2.344-1.633 3.947-3.92 3.947-2.27 0-3.923-1.603-3.923-3.947 0-2.344 1.652-3.947 3.922-3.947zm13.24-2.086h-5.053v12.065h5.353c2.968 0 4.655-1.146 4.655-3.456 0-1.3-.927-2.336-2.058-2.706 1.025-.362 1.793-1.344 1.793-2.56 0-2.3-1.81-3.344-4.69-3.344zm-2.588 7.05h2.764c1.37 0 2.218.302 2.218 1.44 0 1.154-.848 1.464-2.218 1.464l-2.764-.008V21.29zm0-4.93h2.517c1.218 0 2.19.268 2.19 1.397 0 1.17-.954 1.422-2.182 1.422h-2.526v-2.82zm20.784 9.945l-4.814-12.065h-3.003l-4.815 12.065h2.57l1.078-2.81h5.273l1.078 2.81h2.632zm-8.135-5.024l1.794-4.66 1.784 4.66h-3.577zm18.55 5.025v-2.25h-6.537V14.24h-2.464v12.065h9z" fill="#BBBDBF"/><g transform="translate(158.484 .244)"><mask id="f" fill="#fff"><use xlink:href="#e"/></mask><path d="M10.557 5.28c0 2.758-2.224 4.87-5.02 4.87-2.826 0-4.99-2.112-4.99-4.87C.547 2.523 2.71.353 5.537.353c2.796 0 5.02 2.17 5.02 4.927" fill="#BBBDBF" mask="url(#f)"/></g></g></g></svg>